<svg xmlns="http://www.w3.org/2000/svg" width="640" height="400" viewBox="0 0 640 400">
  <defs>
    <linearGradient id="bg" x1="0" y1="0" x2="1" y2="1">
      <stop offset="0" stop-color="#f5f7ff"/>
      <stop offset="0.55" stop-color="#f3f4f6"/>
      <stop offset="1" stop-color="#fff7ed"/>
    </linearGradient>
    <linearGradient id="stroke" x1="0" y1="0" x2="1" y2="0">
      <stop offset="0" stop-color="#2554d0" stop-opacity="0.55"/>
      <stop offset="0.5" stop-color="#6d28d9" stop-opacity="0.45"/>
      <stop offset="1" stop-color="#e65100" stop-opacity="0.45"/>
    </linearGradient>
  </defs>

  <rect x="0" y="0" width="640" height="400" rx="18" fill="url(#bg)"/>
  <rect x="18" y="18" width="604" height="364" rx="14" fill="none" stroke="url(#stroke)" stroke-width="3"/>

  <g fill="#6b7280" fill-opacity="0.9">
    <path d="M244 152c0-9.9 8.1-18 18-18h116c9.9 0 18 8.1 18 18v96c0 9.9-8.1 18-18 18H262c-9.9 0-18-8.1-18-18v-96zm18-6a6 6 0 0 0-6 6v96a6 6 0 0 0 6 6h116a6 6 0 0 0 6-6v-96a6 6 0 0 0-6-6H262z"/>
    <path d="M268 240l32-38 22 26 18-20 44 52H268z" fill-opacity="0.8"/>
    <circle cx="292" cy="176" r="10" fill-opacity="0.8"/>
  </g>

  <text x="320" y="304" text-anchor="middle" font-family="Inter, -apple-system, BlinkMacSystemFont, Segoe UI, sans-serif" font-size="18" fill="#525a6a">
    Teaser image will appear here
  </text>
  <text x="320" y="332" text-anchor="middle" font-family="Inter, -apple-system, BlinkMacSystemFont, Segoe UI, sans-serif" font-size="14" fill="#8b93a1">
    (placeholder)
  </text>
</svg>
